<svg id="svg8" xmlns="http://www.w3.org/2000/svg" viewBox="0 0 204.78 204.81"><g id="layer1-93"><path id="path7516-1-0" d="M102.39,0a102.41,102.41,0,0,0,0,204.81h0A102.39,102.39,0,0,0,204.78,102.42h0A102.38,102.38,0,0,0,102.39,0ZM98.16,9.85V25.57a4.22,4.22,0,0,0,8.44.14V9.93A92.75,92.75,0,0,1,145,20.18l-7.85,13.6a4.21,4.21,0,1,0,7.11,4.52c.06-.09.11-.2.17-.28l7.85-13.58a92.89,92.89,0,0,1,28.19,28.05l-13.66,7.88a4.22,4.22,0,0,0,3.92,7.48c.12-.06.2-.12.31-.17l13.66-7.88a92.38,92.38,0,0,1,7.09,18.46L106.2,91.75,71.85,50.46l21.11,56a11.45,11.45,0,0,0,.91,1.5,8.38,8.38,0,0,0,4.26,3.78h0a8.37,8.37,0,0,0,6.74.28c.48-.11,1.13-.31,1.13-.31l85.8-33.38A93.42,93.42,0,0,1,195,98.21H179.24a4.22,4.22,0,0,0-.09,8.44H194.9a92.55,92.55,0,0,1-10.24,38.41l-13.61-7.84a4.28,4.28,0,0,0-2.42-.57,4.21,4.21,0,0,0-1.81,7.88l13.58,7.84a92.62,92.62,0,0,1-28.06,28.2l-7.9-13.66a4.21,4.21,0,1,0-7.28,4.23L145,184.77A92.71,92.71,0,0,1,106.6,195V179.32a4.27,4.27,0,0,0-4.15-4.29h-.14a4.22,4.22,0,0,0-4.15,4.29h0V195a92.71,92.71,0,0,1-38.41-10.25l7.84-13.6a4.19,4.19,0,0,0-1.44-5.79,4.13,4.13,0,0,0-2.14-.59,4.18,4.18,0,0,0-3.7,2.17l-7.84,13.58a92.81,92.81,0,0,1-28.2-28l13.66-7.88a4.22,4.22,0,0,0,1.64-5.73A4.26,4.26,0,0,0,36,136.68h-.42a4.37,4.37,0,0,0-1.86.59L20.09,145A92.74,92.74,0,0,1,9.82,106.6H25.57a4.22,4.22,0,0,0,.14-8.44H9.91A92.67,92.67,0,0,1,20.15,59.75l13.6,7.84a4.22,4.22,0,1,0,4.49-7.14c-.08-.05-.2-.11-.28-.17L24.38,52.44a92.62,92.62,0,0,1,28.06-28.2l7.9,13.66A4.22,4.22,0,1,0,67.82,34c-.06-.09-.11-.2-.17-.28L59.77,20.07A92.78,92.78,0,0,1,98.16,9.85Z"/></g></svg>